PathFileType	4	(X/Y/Z)	C:/Users/opensim2020/Desktop/walking_exp_matlab/subject06_walking19_straight_04.trc	
DataRate	CameraRate	NumFrames	NumMarkers	Units	OrigDataRate	OrigDataStartFrame	OrigNumFrames	
100.00	100.00	8	49	mm	100.00	4756	340	
Frame#	Time	LFHD			RFHD			LBHD			RBHD			C7			T10			CLAV			STRN			RBAK			LSHO			LUPA			LELB			LFRM			LWRA			LWRB			LFIN			RSHO			RUPA			RELB			RFRM			RWRA			RWRB			RFIN			LASI			RASI			LPSI			RPSI			LTHI			LKNE			LTIB			LANK			LHEE			LTOE			RTHI			RKNE			RTIB			RANK			RHEE			RTOE			*39			*40			*41			*42			*43			*44			*45			*46			*47			*48			
		X1	Y1	Z1	X2	Y2	Z2	X3	Y3	Z3	X4	Y4	Z4	X5	Y5	Z5	X6	Y6	Z6	X7	Y7	Z7	X8	Y8	Z8	X9	Y9	Z9	X10	Y10	Z10	X11	Y11	Z11	X12	Y12	Z12	X13	Y13	Z13	X14	Y14	Z14	X15	Y15	Z15	X16	Y16	Z16	X17	Y17	Z17	X18	Y18	Z18	X19	Y19	Z19	X20	Y20	Z20	X21	Y21	Z21	X22	Y22	Z22	X23	Y23	Z23	X24	Y24	Z24	X25	Y25	Z25	X26	Y26	Z26	X27	Y27	Z27	X28	Y28	Z28	X29	Y29	Z29	X30	Y30	Z30	X31	Y31	Z31	X32	Y32	Z32	X33	Y33	Z33	X34	Y34	Z34	X35	Y35	Z35	X36	Y36	Z36	X37	Y37	Z37	X38	Y38	Z38	X39	Y39	Z39	X40	Y40	Z40	X41	Y41	Z41	X42	Y42	Z42	X43	Y43	Z43	X44	Y44	Z44	X45	Y45	Z45	X46	Y46	Z46	X47	Y47	Z47	X48	Y48	Z48	X49	Y49	Z49	

213	2.120	-971.77838	-72.07393	1639.17297	-1103.23242	-78.52749	1629.16089	-978.16681	60.09063	1582.38025	-1107.68359	51.78007	1577.62244	-1036.94385	57.05713	1427.87231	-1051.54846	93.21876	1099.16968	-1033.94373	-50.81553	1348.63159	-1032.73010	-87.89902	1173.00806	-1125.55359	128.89551	1260.89429	-873.84692	12.32729	1377.50122	-805.55341	56.13033	1181.39368	-795.83551	85.74531	1073.19861	-772.10736	92.65298	922.90839	-810.13770	52.80990	798.70886	-776.69812	116.04444	805.55530	-774.18170	91.44979	717.68524	-1196.71997	-15.96090	1384.30884	-1293.14172	17.95905	1188.94861	-1306.16699	6.57484	1067.33801	-1316.05444	-29.98079	953.06891	-1269.71509	-113.07628	831.96240	-1314.87964	-65.00156	820.47174	-1308.05554	-115.80704	753.17285	-936.49554	-87.29112	944.66107	-1157.10229	-80.46275	937.95111	-957.75317	71.35890	969.88202	-1126.88171	69.82355	970.12585	-860.86877	-83.51465	639.30652	-887.61389	-137.95695	488.59335	-884.16565	-171.85048	234.82446	-920.53461	-218.30359	65.96616	-963.99835	-182.29440	40.81062	-935.50189	-363.97345	71.22884	-1192.81274	34.98536	610.98358	-1170.28687	64.73986	487.64273	-1162.31616	198.26674	251.55263	-1111.58960	271.37817	79.85480	-1066.78528	316.19040	62.63553	-1108.62781	124.43230	30.97874	-1035.54517	25.70652	1675.86609																											 
214	2.130	-970.20203	-79.23170	1638.31116	-1101.77588	-85.35509	1628.33594	-976.29242	52.90492	1581.32825	-1105.36157	44.53968	1576.46448	-1035.42798	50.29836	1426.90967	-1049.94092	84.82379	1097.87122	-1032.42798	-58.15544	1347.77661	-1031.42346	-95.80427	1172.22485	-1123.74670	121.53510	1259.52539	-872.17059	4.99625	1376.20752	-804.19458	48.61257	1180.00073	-794.69141	78.51708	1071.80981	-771.05591	85.30479	921.43787	-808.92828	45.36811	797.29163	-775.89417	108.90243	804.16144	-773.43054	84.32912	716.31659	-1195.13074	-22.93583	1383.38403	-1291.69580	11.04564	1188.07251	-1304.91406	-0.36539	1066.44080	-1315.01746	-36.70673	952.07739	-1269.00732	-119.45840	830.65857	-1314.30701	-71.14921	819.43176	-1307.51111	-121.90149	751.94769	-935.40607	-95.90155	943.76605	-1156.01282	-88.52462	936.82697	-955.99335	62.82705	969.10736	-1125.32166	61.62899	969.10474	-859.27441	-92.31447	638.58917	-885.63965	-146.22836	487.89771	-883.85852	-177.21033	233.66762	-920.25739	-220.20850	64.95708	-964.61096	-184.20074	41.96717	-934.25269	-366.81015	63.30082	-1191.65027	28.37532	610.16461	-1169.40601	58.88847	487.01651	-1161.94019	195.31587	252.45473	-1111.85388	270.60489	81.50586	-1067.24927	315.23654	64.48360	-1108.51111	124.34908	30.89808	-1033.74084	18.78207	1674.87952																											 
215	2.140	-968.60724	-86.37852	1637.99548	-1100.20630	-92.26320	1627.99670	-974.36401	45.60823	1580.62036	-1104.03748	38.07403	1575.95728	-1033.65173	43.13243	1426.41333	-1048.50439	76.53546	1096.91394	-1030.85156	-65.56348	1347.33862	-1030.12427	-103.52781	1171.79224	-1121.63757	114.22512	1258.43188	-870.36346	-2.46858	1375.14441	-802.77045	40.95897	1178.76160	-793.41083	70.83221	1070.57703	-770.05566	77.68623	920.22552	-807.95850	37.87101	796.05859	-774.83777	101.43420	802.95892	-772.55347	76.69950	715.03864	-1193.61597	-29.90140	1382.74609	-1290.21680	4.03036	1187.29675	-1303.65027	-7.32983	1065.68420	-1313.92883	-43.39097	951.23956	-1268.26099	-125.83850	829.46124	-1313.44434	-77.50493	818.42120	-1306.94666	-128.02827	750.87189	-934.24347	-104.48008	943.25726	-1154.85303	-96.77194	935.81189	-954.42834	54.26649	968.87341	-1123.82336	53.22630	968.37524	-857.78729	-100.82991	638.51477	-883.84302	-153.61072	487.61298	-883.58514	-182.62616	233.40848	-919.43353	-223.13068	64.45876	-964.02460	-186.35564	43.17456	-933.76709	-369.76273	57.70157	-1190.37476	21.52566	609.48090	-1168.18359	52.77457	486.49423	-1161.41394	191.98462	253.64444	-1112.27063	269.66776	83.57105	-1067.92444	314.56036	67.16739	-1108.55872	124.17082	30.92244	-1031.92102	11.90290	1674.25903																											 
216	2.150	-966.94867	-93.51537	1638.10925	-1098.54468	-99.06425	1628.09863	-972.38892	38.31957	1580.42444	-1101.53455	30.55862	1575.56641	-1031.78210	35.79136	1426.45435	-1047.11462	68.12992	1096.38464	-1029.30200	-72.89995	1347.35486	-1028.80127	-111.27129	1171.75989	-1119.44495	106.63873	1257.76599	-868.52374	-10.01730	1374.41406	-801.28241	33.05531	1177.79773	-792.04810	63.06575	1069.55957	-769.16309	69.84471	919.01709	-806.95532	29.92782	795.04010	-774.03497	93.16202	801.77557	-771.57153	68.82754	714.08789	-1192.19055	-36.92136	1382.46375	-1288.73718	-3.09706	1186.83337	-1302.29492	-14.45460	1065.24719	-1312.72900	-50.06143	950.60199	-1267.53027	-132.18929	828.48218	-1312.63831	-83.50095	817.71405	-1306.38037	-133.94017	749.99664	-932.96539	-113.05660	943.19818	-1153.51208	-105.13608	935.04376	-952.94049	45.85387	969.28217	-1122.46765	44.69191	968.03882	-856.20227	-109.01910	639.29059	-882.07123	-160.80801	487.93234	-882.46204	-187.81569	233.78232	-918.81616	-225.87819	64.06811	-963.43439	-188.59805	44.28123	-933.07690	-372.32242	53.66095	-1189.06189	14.22317	609.05853	-1166.82642	46.12969	486.14539	-1160.90222	188.28276	255.17711	-1112.66638	268.45309	86.13676	-1068.43970	314.05185	70.69005	-1108.66565	124.38564	30.75040	-1030.02148	5.09069	1674.21362																											 
217	2.160	-965.26941	-100.74570	1638.50305	-1096.82397	-106.00093	1628.47229	-970.37311	31.08512	1580.66028	-1100.00610	24.12326	1576.01147	-1029.94055	28.44094	1426.60645	-1045.84949	59.81932	1096.32397	-1027.75159	-80.18248	1347.70630	-1027.30872	-119.10246	1172.15466	-1117.53333	99.10069	1257.55664	-866.73920	-17.60234	1374.09399	-799.81323	24.98074	1177.19214	-790.62286	54.83141	1068.84692	-767.84973	61.51737	918.31104	-806.13483	21.98584	794.41333	-772.84283	85.18427	801.16467	-770.55975	60.52728	713.47083	-1190.78406	-44.12284	1382.61511	-1286.88525	-10.20670	1186.81787	-1300.79541	-21.62682	1065.18457	-1311.40356	-56.81602	950.35327	-1266.81763	-138.40456	827.80145	-1311.49243	-89.31528	817.22711	-1305.95923	-139.63112	749.49585	-931.45581	-121.62246	943.74695	-1151.69763	-113.27018	934.56891	-951.74939	37.62101	970.16937	-1121.28430	36.06859	967.93384	-854.93237	-116.97500	640.44299	-880.53595	-168.42708	488.75244	-881.21411	-192.36336	234.11896	-918.22961	-227.88455	63.91880	-963.08521	-190.20988	45.20864	-932.38086	-374.17145	49.88066	-1187.59387	6.51165	608.91882	-1165.36865	38.77048	486.10730	-1160.41809	184.30582	257.18481	-1113.06262	267.06216	89.09247	-1068.86206	312.38101	73.84437	-1108.63220	124.26326	30.68617	-1028.06628	-1.96590	1674.46313																											 
218	2.170	-963.49200	-108.04213	1639.00732	-1095.07886	-113.06615	1629.10193	-968.37518	23.71239	1581.22498	-1097.45337	16.59764	1576.47583	-1028.04517	21.07873	1426.99780	-1044.65442	51.63241	1096.80786	-1026.19519	-87.57230	1348.38599	-1025.76501	-127.03990	1172.92371	-1115.82153	91.48677	1257.71228	-865.10211	-25.20406	1374.22913	-798.31116	16.66830	1177.07397	-789.11725	46.23199	1068.64441	-766.26215	52.75582	918.06067	-805.10022	13.27750	794.16864	-771.57068	76.42864	800.89026	-769.35724	51.74245	713.22290	-1189.30334	-51.42105	1383.23877	-1285.01831	-17.22617	1187.23792	-1299.07898	-28.99017	1065.64209	-1310.00415	-63.52647	950.54553	-1266.03162	-144.50583	827.45416	-1310.38684	-95.26694	817.18182	-1305.42627	-145.21121	749.31616	-929.63770	-130.09584	944.81659	-1150.00720	-122.20094	934.67322	-950.71509	29.52595	971.17023	-1120.16443	27.87393	968.32294	-853.85120	-124.89984	641.75983	-879.29388	-176.07162	489.66565	-880.16504	-196.77370	234.34782	-917.82990	-229.18817	63.61322	-962.66516	-191.16405	45.83599	-932.11877	-375.24615	46.45873	-1186.05774	-1.40447	609.13910	-1164.02734	31.03024	486.39890	-1160.01221	180.05429	259.50238	-1113.57361	265.41394	92.50564	-1069.81812	311.48169	78.57441	-1108.61633	124.13326	30.63401	-1026.11987	-9.11217	1675.08752																											 
219	2.180	-961.65698	-115.37895	1639.74231	-1093.23584	-120.08367	1629.97253	-966.43896	16.56364	1582.10718	-1095.45081	9.40568	1577.46362	-1026.54822	13.99130	1427.55334	-1043.34985	43.43485	1097.56897	-1024.64136	-94.85838	1349.28748	-1024.20190	-135.08168	1173.96631	-1114.37061	83.69012	1258.18286	-863.57056	-32.75442	1374.82544	-796.87158	8.21751	1177.36438	-787.67657	37.33862	1068.80005	-765.33856	43.35688	918.16833	-803.93042	4.35043	794.33472	-770.02411	67.18653	801.01764	-768.03723	42.52748	713.38232	-1187.74805	-58.70618	1384.28723	-1283.03601	-24.14938	1188.09204	-1297.19556	-36.44976	1066.51904	-1308.43848	-70.33727	951.21539	-1265.22119	-150.49585	827.43506	-1309.52905	-101.03284	817.69464	-1304.97546	-150.50575	749.51379	-927.69049	-138.35110	946.13965	-1147.87781	-130.79721	935.13379	-949.52972	21.28900	972.40234	-1118.82678	19.13364	968.85681	-852.77032	-132.66258	642.94995	-878.16718	-183.43552	490.52118	-879.51752	-200.93466	234.43921	-917.88257	-230.33374	63.42058	-962.66583	-190.97787	47.03171	-931.94727	-376.18698	44.62580	-1183.92798	-10.34130	609.32910	-1162.66724	22.93303	486.96753	-1159.70422	175.41760	262.17059	-1114.21655	263.43839	96.23585	-1070.58228	309.90582	83.38157	-1108.61731	123.99407	30.61352	-1024.05212	-16.36867	1675.94897																											 
220	2.190	-959.76227	-122.58835	1640.82947	-1091.39880	-127.14784	1631.13879	-964.46204	9.38430	1583.20349	-1093.56982	2.51813	1578.74878	-1024.96277	6.83256	1428.46606	-1041.89417	35.15698	1098.49377	-1023.03900	-102.40900	1350.51221	-1022.62622	-143.13734	1175.26172	-1112.82556	75.71450	1258.87500	-862.02307	-40.02717	1375.78479	-795.39026	-0.27591	1178.07056	-786.18921	28.16268	1069.39856	-763.49658	33.86450	918.78784	-802.71075	-5.14027	794.92944	-768.39734	57.29526	801.60822	-766.59302	32.81822	713.91449	-1186.10400	-66.14275	1385.64661	-1281.14270	-31.77158	1189.40710	-1295.19702	-43.90897	1067.78552	-1306.82935	-77.07206	952.26013	-1264.33215	-156.44812	827.73376	-1308.39966	-106.60925	818.43420	-1304.33752	-155.74545	749.97113	-925.59021	-146.51039	947.59406	-1145.56384	-139.50435	935.95825	-948.13544	12.96880	973.71326	-1117.27063	10.36362	969.69849	-851.71027	-140.17531	644.08722	-877.63196	-190.17203	491.15427	-879.43793	-204.63489	234.72194	-918.14197	-231.60504	63.51482	-962.88184	-191.57272	47.56978	-932.27301	-377.17175	43.56774	-1182.79944	-18.52777	610.07391	-1161.44812	14.21611	487.58762	-1159.33618	170.60774	265.31155	-1114.87585	260.91818	100.25621	-1071.35242	307.64832	88.51736	-1108.58728	123.70174	30.55555	-1021.98285	-23.54112	1677.08325																											 
